<?xml version="1.0" encoding="UTF-8" standalone="no"?><!-- Generator: Gravit.io --><svg xmlns="http://www.w3.org/2000/svg" xmlns:xlink="http://www.w3.org/1999/xlink" style="isolation:isolate" viewBox="0 0 692 600" width="692pt" height="600pt"><defs><clipPath id="_clipPath_xkLf7W41KRQnkUNyL48pkDGjGTSVmWL0"><rect width="692" height="600"/></clipPath></defs><g clip-path="url(#_clipPath_xkLf7W41KRQnkUNyL48pkDGjGTSVmWL0)"><path d=" M 454.604 196.356 C 476.769 196.356 494.944 178.778 494.944 157.342 C 494.944 135.906 476.769 118.328 454.604 118.328 C 432.439 118.328 414.264 135.906 414.264 157.342 C 414.264 178.778 432.439 196.356 454.604 196.356 Z  M 168.676 196.356 C 190.841 196.356 209.016 178.778 209.016 157.342 C 209.016 135.906 190.841 118.328 168.676 118.328 C 146.511 118.328 128.335 135.906 128.335 157.342 C 128.335 178.778 146.511 196.356 168.676 196.356 Z  M 682.017 292.176 C 675.589 288.317 667.61 287.889 660.96 291.104 L 569.64 333.976 L 569.64 326.902 C 569.64 309.968 561.661 294.963 549.249 284.887 C 591.948 255.44 617.296 207.847 617.295 157.128 C 617.295 70.525 544.372 0 454.826 0 C 395.123 0.057 340.249 31.734 311.862 82.529 C 283.474 31.734 228.6 0.057 168.897 0 C 79.351 0 6.428 70.525 6.428 157.128 C 6.428 210.504 33.912 257.449 76.026 285.959 C 63.878 296.32 56.932 311.238 56.964 326.902 L 56.964 545.552 C 56.964 575.563 82.232 600 113.263 600 L 513.12 600 C 544.151 600 569.419 575.563 569.419 545.552 L 569.419 538.478 L 660.739 581.35 C 667.469 584.529 675.417 584.13 681.77 580.295 C 688.124 576.46 691.986 569.73 691.991 562.487 L 691.991 310.182 C 692.213 302.894 688.223 296.034 682.017 292.176 L 682.017 292.176 Z  M 100.186 545.766 L 100.186 327.117 C 100.186 320.257 105.949 314.684 113.041 314.684 L 513.12 314.684 C 520.212 314.684 525.975 320.257 525.975 327.117 L 525.975 545.981 C 525.975 552.84 520.212 558.414 513.12 558.414 L 113.041 558.414 C 105.949 558.199 100.186 552.626 100.186 545.766 Z  M 279.057 272.454 C 292.135 260.665 303.217 246.945 311.64 231.726 C 320.284 246.945 331.367 260.665 344.222 272.454 L 279.057 272.454 Z  M 454.604 42.229 C 520.212 42.229 573.63 93.891 573.63 157.342 C 573.63 220.793 520.212 272.454 454.604 272.454 C 388.996 272.454 335.8 220.793 335.8 157.342 C 335.8 93.891 389.217 42.229 454.604 42.229 L 454.604 42.229 Z  M 49.871 157.342 C 49.871 93.891 103.289 42.229 168.897 42.229 C 234.506 42.229 287.923 93.891 287.923 157.342 C 287.923 220.793 234.506 272.454 168.897 272.454 C 103.067 272.454 49.871 220.793 49.871 157.342 Z  M 648.548 529.046 L 569.419 491.747 L 569.419 380.707 L 648.548 343.623 L 648.548 529.046 L 648.548 529.046 Z  M 21.722 501.393 C 33.691 501.393 43.443 491.961 43.443 480.386 L 43.443 385.209 C 43.443 373.633 33.691 364.201 21.722 364.201 C 9.753 364.201 0 373.633 0 385.209 L 0 480.386 C 0 491.961 9.753 501.393 21.722 501.393 Z " fill="rgb(235,33,136)"/><text transform="matrix(1,0,0,1,365.203,756.174)" style="font-family:'Open Sans';font-weight:700;font-size:100px;font-style:normal;fill:#FFC100;stroke:none;">Moviefy</text></g></svg>