<?xml version="1.0" encoding="UTF-8" standalone="no"?><!-- Generator: Gravit.io --><svg xmlns="http://www.w3.org/2000/svg" xmlns:xlink="http://www.w3.org/1999/xlink" style="isolation:isolate" viewBox="0 0 2500 723" width="2500pt" height="723pt"><defs><clipPath id="_clipPath_DEAF9PNqald35YUyy3UFfKNIz63h9Jtp"><rect width="2500" height="723"/></clipPath></defs><g clip-path="url(#_clipPath_DEAF9PNqald35YUyy3UFfKNIz63h9Jtp)"><path d=" M 86344.858 87074.782 C 86327.885 87112.426 86319.744 87129.216 86297.884 87162.47 C 86267.387 87208.934 86224.386 87266.726 86171.101 87267.249 C 86123.736 87267.68 86111.558 87236.452 86047.298 87236.778 C 85983.05 87237.118 85969.644 87267.785 85922.305 87267.354 C 85869.02 87266.87 85828.266 87214.657 85797.743 87168.232 C 85712.446 87038.379 85703.522 86885.999 85756.114 86805 C 85793.497 86747.456 85852.491 86713.771 85907.971 86713.771 C 85964.457 86713.771 85999.958 86744.725 86046.631 86744.725 C 86091.932 86744.725 86119.515 86713.719 86184.821 86713.719 C 86234.16 86713.719 86286.451 86740.622 86323.729 86787.008 C 86201.664 86853.895 86221.511 87028.161 86344.858 87074.782 L 86344.858 87074.782 Z " fill="rgb(0,0,0)"/><path d=" M 86135.313 86661.793 C 86159.028 86631.348 86177.046 86588.373 86170.513 86544.431 C 86131.745 86547.11 86086.405 86571.766 86059.959 86603.896 C 86035.943 86633.06 86016.121 86676.323 86023.817 86718.383 C 86066.139 86719.677 86109.912 86694.407 86135.313 86661.793 L 86135.313 86661.793 Z " fill="rgb(0,0,0)"/><g><path d=" M 86561.407 86868.398 C 86561.407 86894.779 86541.35 86916.051 86509.951 86916.051 C 86479.833 86916.051 86459.776 86894.74 86460.404 86868.398 C 86459.776 86840.828 86479.833 86820.131 86510.578 86820.131 C 86541.324 86820.131 86560.792 86840.828 86561.407 86868.398 Z  M 86462.938 87260.441 L 86462.938 86953.696 L 86558.284 86953.696 L 86558.284 87260.441 L 86462.938 87260.441 Z  M 86719.457 86917.959 L 86605.937 86917.959 L 86605.937 86837.679 L 86930.832 86837.679 L 86930.832 86917.959 L 86815.43 86917.959 L 86815.43 87260.441 L 86719.431 87260.441 L 86719.457 86917.959 Z  M 87233.762 87161.973 C 87233.762 87202.1 87235.03 87234.714 87236.245 87260.455 L 87153.456 87260.455 L 87149.066 87217.179 L 87147.158 87217.179 C 87135.242 87235.981 87106.378 87267.38 87051.173 87267.38 C 86989.069 87267.38 86943.284 87228.455 86943.284 87133.75 L 86943.284 86953.761 L 87039.256 86953.761 L 87039.256 87118.724 C 87039.256 87163.254 87053.682 87190.21 87086.923 87190.21 C 87113.29 87190.21 87128.33 87172.034 87134.589 87156.982 C 87137.071 87151.337 87137.685 87143.811 87137.685 87136.285 L 87137.685 86953.761 L 87233.684 86953.761 L 87233.684 87161.986 L 87233.762 87161.986 L 87233.762 87161.973 L 87233.762 87161.973 Z  M 87310.253 87051.537 C 87310.253 87013.252 87308.998 86980.638 87307.757 86953.709 L 87390.546 86953.709 L 87394.936 86995.743 L 87396.844 86995.743 C 87409.374 86976.313 87440.707 86946.823 87491.549 86946.823 C 87554.28 86946.823 87601.28 86988.217 87601.28 87078.532 L 87601.28 87260.441 L 87505.961 87260.441 L 87505.961 87090.448 C 87505.961 87050.962 87492.15 87023.966 87457.681 87023.966 C 87431.313 87023.966 87415.646 87042.181 87409.4 87059.677 C 87406.905 87065.949 87405.65 87074.729 87405.65 87083.51 L 87405.65 87260.389 L 87310.305 87260.389 L 87310.305 87051.55 L 87310.253 87051.537 L 87310.253 87051.537 Z  M 87751.177 87137.5 C 87754.313 87177.013 87793.212 87195.841 87837.742 87195.841 C 87870.355 87195.841 87896.71 87191.451 87922.399 87183.311 L 87934.956 87247.885 C 87903.609 87260.441 87865.338 87267.314 87823.918 87267.314 C 87719.779 87267.314 87660.222 87206.49 87660.222 87110.492 C 87660.222 87032.708 87708.516 86946.823 87815.137 86946.823 C 87914.258 86946.823 87951.876 87023.927 87951.876 87099.869 C 87951.876 87116.176 87949.982 87130.614 87948.767 87137.487 L 87751.177 87137.5 Z  M 87863.456 87072.234 C 87863.456 87049.054 87853.395 87010.142 87809.505 87010.142 C 87769.366 87010.142 87753.059 87046.506 87750.524 87072.234 L 87863.456 87072.234 Z  M 88008.31 87177.013 C 88025.91 87187.636 88062.261 87200.193 88090.484 87200.193 C 88119.348 87200.193 88131.265 87190.131 88131.265 87174.465 C 88131.265 87158.798 88121.844 87151.272 88086.094 87139.342 C 88022.735 87118.031 87998.275 87083.536 87998.915 87047.773 C 87998.915 86990.072 88047.836 86946.77 88123.751 86946.77 C 88159.488 86946.77 88191.527 86954.937 88210.316 86964.358 L 88193.369 87030.225 C 88179.545 87022.699 88153.242 87012.638 88126.887 87012.638 C 88103.708 87012.638 88090.511 87022.059 88090.511 87037.725 C 88090.511 87052.164 88102.427 87059.703 88140.058 87072.861 C 88198.4 87092.918 88222.86 87122.422 88223.487 87167.566 C 88223.487 87224.653 88178.33 87267.301 88090.511 87267.301 C 88050.397 87267.301 88014.582 87257.867 87991.402 87245.311 L 88008.31 87177.013 L 88008.31 87177.013 Z " fill="rgb(0,0,0)"/></g><g><path d=" M 43771.383 45592.847 C 43754.41 45630.491 43746.27 45647.281 43724.41 45680.535 C 43693.913 45726.999 43650.912 45784.791 43597.628 45785.313 C 43550.262 45785.745 43538.085 45754.516 43473.825 45754.843 C 43409.578 45755.183 43396.172 45785.849 43348.833 45785.418 C 43295.548 45784.934 43254.795 45732.722 43224.272 45686.297 C 43138.975 45556.444 43130.051 45404.066 43182.643 45323.068 C 43220.025 45265.524 43279.02 45231.839 43334.499 45231.839 C 43390.985 45231.839 43426.486 45262.793 43473.158 45262.793 C 43518.459 45262.793 43546.042 45231.787 43611.347 45231.787 C 43660.686 45231.787 43712.977 45258.69 43750.255 45305.075 C 43628.19 45371.962 43648.037 45546.227 43771.383 45592.847 L 43771.383 45592.847 Z " fill="rgb(255,255,255)"/><path d=" M 43561.839 45179.861 C 43585.554 45149.417 43603.573 45106.442 43597.04 45062.5 C 43558.272 45065.179 43512.932 45089.835 43486.486 45121.965 C 43462.47 45151.129 43442.649 45194.391 43450.345 45236.451 C 43492.666 45237.745 43536.438 45212.475 43561.839 45179.861 L 43561.839 45179.861 Z " fill="rgb(255,255,255)"/><g><path d=" M 43987.93 45386.465 C 43987.93 45412.846 43967.874 45434.118 43936.475 45434.118 C 43906.358 45434.118 43886.301 45412.807 43886.928 45386.465 C 43886.301 45358.895 43906.358 45338.198 43937.103 45338.198 C 43967.848 45338.198 43987.316 45358.895 43987.93 45386.465 Z  M 43889.463 45778.506 L 43889.463 45471.762 L 43984.808 45471.762 L 43984.808 45778.506 L 43889.463 45778.506 Z  M 44145.98 45436.026 L 44032.46 45436.026 L 44032.46 45355.746 L 44243.75 45355.746 L 44357.353 45355.746 L 44357.353 45436.026 L 44241.952 45436.026 L 44241.952 45778.506 L 44145.954 45778.506 L 44145.98 45436.026 Z  M 44660.282 45680.038 C 44660.282 45720.165 44661.549 45752.778 44662.764 45778.519 L 44579.976 45778.519 L 44575.586 45735.243 L 44573.679 45735.243 C 44561.762 45754.046 44532.899 45785.444 44477.694 45785.444 C 44415.59 45785.444 44369.805 45746.52 44369.805 45651.815 L 44369.805 45471.827 L 44465.777 45471.827 L 44465.777 45636.789 C 44465.777 45681.319 44480.202 45708.275 44513.443 45708.275 C 44539.811 45708.275 44554.85 45690.099 44561.109 45675.047 C 44563.591 45669.402 44564.206 45661.876 44564.206 45654.35 L 44564.206 45471.827 L 44660.203 45471.827 L 44660.203 45680.051 L 44660.282 45680.051 L 44660.282 45680.038 L 44660.282 45680.038 Z  M 44736.772 45569.602 C 44736.772 45531.318 44735.517 45498.705 44734.276 45471.775 L 44817.064 45471.775 L 44821.454 45513.809 L 44823.362 45513.809 C 44835.893 45494.38 44867.226 45464.889 44918.066 45464.889 C 44980.798 45464.889 45027.797 45506.283 45027.797 45596.597 L 45027.797 45778.506 L 44932.478 45778.506 L 44932.478 45608.514 C 44932.478 45569.027 44918.667 45542.032 44884.199 45542.032 C 44857.831 45542.032 44842.164 45560.247 44835.919 45577.742 C 44833.423 45584.014 44832.169 45592.795 44832.169 45601.575 L 44832.169 45778.454 L 44736.824 45778.454 L 44736.824 45569.615 L 44736.772 45569.602 L 44736.772 45569.602 Z  M 45177.693 45655.565 C 45180.829 45695.078 45219.728 45713.906 45264.257 45713.906 C 45296.871 45713.906 45323.225 45709.516 45348.914 45701.376 L 45361.47 45765.949 C 45330.124 45778.506 45291.853 45785.379 45250.433 45785.379 C 45146.295 45785.379 45086.739 45724.555 45086.739 45628.557 C 45086.739 45550.774 45135.032 45464.889 45241.653 45464.889 C 45340.774 45464.889 45378.391 45541.993 45378.391 45617.934 C 45378.391 45634.241 45376.497 45648.679 45375.282 45655.552 L 45177.693 45655.565 Z  M 45289.972 45590.299 C 45289.972 45567.12 45279.911 45528.208 45236.021 45528.208 C 45195.882 45528.208 45179.575 45564.572 45177.04 45590.299 L 45289.972 45590.299 Z  M 45434.825 45695.078 C 45452.425 45705.701 45488.775 45718.257 45516.998 45718.257 C 45545.862 45718.257 45557.778 45708.196 45557.778 45692.53 C 45557.778 45676.863 45548.357 45669.337 45512.608 45657.408 C 45449.25 45636.096 45424.79 45601.601 45425.43 45565.839 C 45425.43 45508.138 45474.35 45464.837 45550.265 45464.837 C 45586.001 45464.837 45618.04 45473.003 45636.829 45482.424 L 45619.882 45548.291 C 45606.058 45540.765 45579.756 45530.704 45553.401 45530.704 C 45530.221 45530.704 45517.025 45540.125 45517.025 45555.791 C 45517.025 45570.229 45528.941 45577.769 45566.572 45590.926 C 45624.913 45610.983 45649.373 45640.487 45650 45685.631 C 45650 45742.717 45604.843 45785.366 45517.025 45785.366 C 45476.911 45785.366 45441.096 45775.932 45417.917 45763.375 L 45434.825 45695.078 L 45434.825 45695.078 Z " fill="rgb(255,255,255)"/></g></g></g></svg>