<?xml version="1.0" encoding="UTF-8" standalone="no"?><!-- Generator: Gravit.io --><svg xmlns="http://www.w3.org/2000/svg" xmlns:xlink="http://www.w3.org/1999/xlink" style="isolation:isolate" viewBox="0 0 700 250" width="700pt" height="250pt"><defs><clipPath id="_clipPath_D9WbaUZAir56gFLp7qnuiUG1rdpzD7re"><rect width="700" height="250"/></clipPath></defs><g clip-path="url(#_clipPath_D9WbaUZAir56gFLp7qnuiUG1rdpzD7re)"><clipPath id="_clipPath_ev81JbdxJqBv4F9bQ0IroAlHuQRnRCSP"><rect x="0" y="-110" width="800" height="520" transform="matrix(1,0,0,1,0,0)" fill="rgb(255,255,255)"/></clipPath><g clip-path="url(#_clipPath_ev81JbdxJqBv4F9bQ0IroAlHuQRnRCSP)"><g><path d=" M 200.377 88.411 C 207.521 88.411 213.377 82.715 213.377 75.767 C 213.377 68.821 207.521 63.123 200.377 63.123 C 193.235 63.123 187.378 68.821 187.378 75.767 C 187.378 82.715 193.235 88.411 200.377 88.411 Z  M 108.236 88.411 C 115.379 88.411 121.236 82.715 121.236 75.767 C 121.236 68.821 115.379 63.123 108.236 63.123 C 101.093 63.123 95.236 68.821 95.236 75.767 C 95.236 82.715 101.093 88.411 108.236 88.411 Z  M 273.663 119.464 C 271.591 118.214 269.02 118.074 266.877 119.116 L 237.449 133.011 L 237.449 130.718 C 237.449 125.23 234.878 120.368 230.877 117.102 C 244.637 107.559 252.806 92.135 252.806 75.697 C 252.806 59.153 244.64 44.42 232.025 35.111 C 223.24 28.628 212.296 24.776 200.45 24.776 C 181.209 24.794 163.527 35.06 154.378 51.522 C 145.23 35.06 127.547 24.794 108.307 24.776 C 79.451 24.776 55.951 47.632 55.951 75.697 C 55.951 92.996 64.808 108.21 78.379 117.45 C 74.465 120.807 72.226 125.642 72.237 130.718 L 72.237 201.578 C 72.237 211.304 80.38 219.224 90.379 219.224 L 219.234 219.224 C 229.235 219.224 237.378 211.304 237.378 201.578 L 237.378 199.286 L 266.806 213.18 C 268.975 214.209 271.536 214.08 273.583 212.838 C 275.631 211.595 276.875 209.413 276.877 207.066 L 276.877 125.3 C 276.949 122.938 275.662 120.714 273.663 119.464 L 273.663 119.464 Z  M 86.164 201.648 L 86.164 130.788 C 86.164 128.565 88.022 126.758 90.308 126.758 L 219.234 126.758 C 221.52 126.758 223.378 128.565 223.378 130.788 L 223.378 201.718 C 223.378 203.94 221.52 205.746 219.234 205.746 L 90.308 205.746 C 88.022 205.677 86.164 203.871 86.164 201.648 Z  M 143.807 113.073 C 148.021 109.252 151.593 104.806 154.307 99.874 C 157.093 104.806 160.664 109.252 164.807 113.073 L 143.807 113.073 Z  M 200.377 38.462 C 221.52 38.462 238.735 55.204 238.735 75.767 C 238.735 96.331 221.52 113.073 200.377 113.073 C 179.235 113.073 162.093 96.331 162.093 75.767 C 162.093 55.204 179.307 38.462 200.377 38.462 L 200.377 38.462 Z  M 69.951 75.767 C 69.951 55.204 87.165 38.462 108.307 38.462 C 129.45 38.462 146.664 55.204 146.664 75.767 C 146.664 96.331 129.45 113.073 108.307 113.073 C 87.093 113.073 69.951 96.331 69.951 75.767 Z  M 262.878 196.229 L 237.378 184.141 L 237.378 148.156 L 262.878 136.138 L 262.878 196.229 L 262.878 196.229 Z  M 60.879 187.267 C 64.736 187.267 67.879 184.211 67.879 180.459 L 67.879 149.615 C 67.879 145.863 64.736 142.806 60.879 142.806 C 57.023 142.806 53.879 145.863 53.879 149.615 L 53.879 180.459 C 53.879 184.211 57.023 187.267 60.879 187.267 Z " fill="rgb(235,33,136)"/><text transform="matrix(1.281,0,0,1.37,286.068,169.447)" style="font-family:'Open Sans';font-weight:700;font-size:70px;font-style:normal;font-variant-ligatures:none;fill:#EB2188;stroke:none;">Moviefy</text></g></g></g></svg>