<?xml version="1.0" encoding="UTF-8" standalone="no"?><!-- Generator: Gravit.io --><svg xmlns="http://www.w3.org/2000/svg" xmlns:xlink="http://www.w3.org/1999/xlink" style="isolation:isolate" viewBox="0 0 800 600" width="800pt" height="600pt"><defs><clipPath id="_clipPath_hT3Ov4lBntB1KDRhMMolITY2A44Aaqgb"><rect width="800" height="600"/></clipPath></defs><g clip-path="url(#_clipPath_hT3Ov4lBntB1KDRhMMolITY2A44Aaqgb)"><path d=" M 236.388 239.634 C 242.795 239.634 248.047 234.654 248.047 228.58 C 248.047 222.507 242.795 217.526 236.388 217.526 C 229.982 217.526 224.729 222.507 224.729 228.58 C 224.729 234.654 229.982 239.634 236.388 239.634 Z  M 153.75 239.634 C 160.156 239.634 165.409 234.654 165.409 228.58 C 165.409 222.507 160.156 217.526 153.75 217.526 C 147.344 217.526 142.091 222.507 142.091 228.58 C 142.091 234.654 147.344 239.634 153.75 239.634 Z  M 302.115 266.783 C 300.257 265.69 297.951 265.568 296.029 266.479 L 269.636 278.627 L 269.636 276.622 C 269.636 271.824 267.33 267.573 263.742 264.718 C 276.083 256.375 283.409 242.89 283.409 228.519 C 283.409 203.982 262.333 184 236.453 184 C 219.197 184.016 203.338 192.991 195.133 207.383 C 186.929 192.991 171.069 184.016 153.814 184 C 127.934 184 106.858 203.982 106.858 228.519 C 106.858 243.643 114.801 256.944 126.973 265.022 C 123.462 267.957 121.454 272.184 121.464 276.622 L 121.464 338.573 C 121.464 347.076 128.767 354 137.735 354 L 253.3 354 C 262.269 354 269.572 347.076 269.572 338.573 L 269.572 336.569 L 295.965 348.716 C 297.91 349.616 300.207 349.503 302.043 348.417 C 303.88 347.33 304.996 345.423 304.997 343.371 L 304.997 271.885 C 305.062 269.82 303.908 267.876 302.115 266.783 L 302.115 266.783 Z  M 133.955 338.634 L 133.955 276.683 C 133.955 274.74 135.621 273.16 137.671 273.16 L 253.3 273.16 C 255.35 273.16 257.016 274.74 257.016 276.683 L 257.016 338.695 C 257.016 340.638 255.35 342.217 253.3 342.217 L 137.671 342.217 C 135.621 342.156 133.955 340.577 133.955 338.634 Z  M 185.652 261.195 C 189.432 257.855 192.635 253.968 195.069 249.656 C 197.568 253.968 200.771 257.855 204.486 261.195 L 185.652 261.195 Z  M 236.388 195.965 C 255.35 195.965 270.789 210.602 270.789 228.58 C 270.789 246.558 255.35 261.195 236.388 261.195 C 217.426 261.195 202.052 246.558 202.052 228.58 C 202.052 210.602 217.491 195.965 236.388 195.965 L 236.388 195.965 Z  M 119.414 228.58 C 119.414 210.602 134.852 195.965 153.814 195.965 C 172.776 195.965 188.215 210.602 188.215 228.58 C 188.215 246.558 172.776 261.195 153.814 261.195 C 134.788 261.195 119.414 246.558 119.414 228.58 Z  M 292.442 333.896 L 269.572 323.328 L 269.572 291.867 L 292.442 281.36 L 292.442 333.896 L 292.442 333.896 Z  M 111.278 326.061 C 114.737 326.061 117.556 323.389 117.556 320.109 L 117.556 293.143 C 117.556 289.863 114.737 287.19 111.278 287.19 C 107.819 287.19 105 289.863 105 293.143 L 105 320.109 C 105 323.389 107.819 326.061 111.278 326.061 Z " fill="rgb(235,33,136)"/><text transform="matrix(1,0,0,1,328.354,338.794)" style="font-family:'Open Sans';font-weight:700;font-size:100px;font-style:normal;fill:#eb2188;stroke:none;">Moviefy</text></g></svg>